/* XPM */
static char *liderahenk_48[] = {
/* columns rows colors chars-per-pixel */
"48 30 2 1 ",
"  c #6896AC",
". c None",
/* pixels */
"................................................",
"................................................",
"...............  ...............................",
"...............  ........    ...................",
"...............   .......... ...................",
"...............   ........... ..................",
"................  ........... ..................",
"................   .............................",
"................   .............................",
"................    ............................",
".................   ............................",
".................    ...........................",
"..................    ..........................",
"..................              ................",
"...................              ...............",
"....................            ................",
"................................................",
"................................................",
"................................................",
".. .... .... .............. ............. .. ...",
".. ......... .............. ............. .. ...",
".. .... ..   .   ..  .   ..  ...   ..   . .. ...",
".. .... .  . . .. . .. .. . .  . .  . . .    ...",
".. .... . .. .    . ....  . .. .   . .. .    ...",
".. .... . .. . .... ..    . .. . ... .. . .. ...",
"..  ... . .. . .... .. .. . .. . ... .. . .. ...",
"...   . .    .   .. ..   .. .. .   .... ....  ..",
"................................................",
"................................................",
"................................................"
};
